<svg xmlns="http://www.w3.org/2000/svg" viewBox="0 0 1278.84 39.38"><defs><style>.cls-1{fill:#7ec2a2;}.cls-2{fill:#97ceb5;}.cls-3{fill:#b1dac7;}</style></defs><title>Asset 4</title><g data-name="Layer 2"><g data-name="Layer 2"><path class="cls-1" d="M87.8,38.72l8.2.67S92.28,24.63,96,0C87.08,21.11,87.8,38.72,87.8,38.72Z"/><path class="cls-1" d="M52.79,38.72l8.2.67S57.27,24.63,61,0C52.06,21.11,52.79,38.72,52.79,38.72Z"/><path class="cls-1" d="M31.28,38.72l8.2.67S35.76,24.63,39.47,0C30.55,21.11,31.28,38.72,31.28,38.72Z"/><path class="cls-1" d="M9.76,38.72l8.2.67S14.24,24.63,18,0C9,21.11,9.76,38.72,9.76,38.72Z"/><path class="cls-1" d="M97.25,38.72l8.2.67s-3.72-14.76,0-39.38C96.53,21.11,97.25,38.72,97.25,38.72Z"/><path class="cls-1" d="M123.07,38.72l8.2.67s-3.72-14.76,0-39.38C122.34,21.11,123.07,38.72,123.07,38.72Z"/><path class="cls-1" d="M144.58,38.72l8.2.67s-3.72-14.76,0-39.38C143.86,21.11,144.58,38.72,144.58,38.72Z"/><path class="cls-1" d="M166.1,38.72l8.2.67s-3.72-14.76,0-39.38C165.37,21.11,166.1,38.72,166.1,38.72Z"/><path class="cls-1" d="M191.91,38.72l8.2.67s-3.72-14.76,0-39.38C191.19,21.11,191.91,38.72,191.91,38.72Z"/><path class="cls-1" d="M213.43,38.72l8.2.67s-3.72-14.76,0-39.38C212.7,21.11,213.43,38.72,213.43,38.72Z"/><path class="cls-1" d="M234.94,38.72l8.2.67s-3.72-14.76,0-39.38C234.22,21.11,234.94,38.72,234.94,38.72Z"/><path class="cls-1" d="M260.76,38.72l8.2.67S265.24,24.63,269,0C260,21.11,260.76,38.72,260.76,38.72Z"/><path class="cls-1" d="M282.27,38.72l8.2.67s-3.72-14.76,0-39.38C281.55,21.11,282.27,38.72,282.27,38.72Z"/><path class="cls-1" d="M303.78,38.72l8.2.67S308.27,24.63,312,0C303.06,21.11,303.78,38.72,303.78,38.72Z"/><path class="cls-1" d="M325.3,38.72l8.2.67s-3.72-14.76,0-39.38C324.57,21.11,325.3,38.72,325.3,38.72Z"/><path class="cls-1" d="M351.12,38.72l8.2.67s-3.72-14.76,0-39.38C350.39,21.11,351.12,38.72,351.12,38.72Z"/><path class="cls-1" d="M372.63,38.72l8.2.67s-3.72-14.76,0-39.38C371.91,21.11,372.63,38.72,372.63,38.72Z"/><path class="cls-1" d="M394.14,38.72l8.2.67s-3.72-14.76,0-39.38C393.42,21.11,394.14,38.72,394.14,38.72Z"/><path class="cls-1" d="M415.66,38.72l8.2.67s-3.72-14.76,0-39.38C414.93,21.11,415.66,38.72,415.66,38.72Z"/><path class="cls-1" d="M441.47,38.72l8.2.67S446,24.63,449.67,0C440.75,21.11,441.47,38.72,441.47,38.72Z"/><path class="cls-1" d="M463,38.72l8.2.67s-3.72-14.76,0-39.38C462.26,21.11,463,38.72,463,38.72Z"/><path class="cls-1" d="M484.5,38.72l8.2.67S489,24.63,492.7,0C483.78,21.11,484.5,38.72,484.5,38.72Z"/><path class="cls-1" d="M506,38.72l8.2.67s-3.72-14.76,0-39.38C505.29,21.11,506,38.72,506,38.72Z"/><path class="cls-1" d="M531.83,38.72l8.2.67S536.31,24.63,540,0C531.11,21.11,531.83,38.72,531.83,38.72Z"/><path class="cls-1" d="M553.35,38.72l8.2.67s-3.72-14.76,0-39.38C552.62,21.11,553.35,38.72,553.35,38.72Z"/><path class="cls-1" d="M574.86,38.72l8.2.67s-3.72-14.76,0-39.38C574.14,21.11,574.86,38.72,574.86,38.72Z"/><path class="cls-1" d="M596.37,38.72l8.2.67s-3.72-14.76,0-39.38C595.65,21.11,596.37,38.72,596.37,38.72Z"/><path class="cls-1" d="M622.19,38.72l8.2.67s-3.72-14.76,0-39.38C621.47,21.11,622.19,38.72,622.19,38.72Z"/><path class="cls-1" d="M182.27,38.72l8.2.67s-3.72-14.76,0-39.38C181.54,21.11,182.27,38.72,182.27,38.72Z"/><path class="cls-1" d="M246.81,38.72l8.2.67S251.29,24.63,255,0C246.08,21.11,246.81,38.72,246.81,38.72Z"/><path class="cls-1" d="M315.65,38.72l8.2.67s-3.72-14.76,0-39.38C314.93,21.11,315.65,38.72,315.65,38.72Z"/><path class="cls-1" d="M406,38.72l8.2.67s-3.72-14.76,0-39.38C405.28,21.11,406,38.72,406,38.72Z"/><path class="cls-1" d="M496.37,38.72l8.2.67s-3.72-14.76,0-39.38C495.64,21.11,496.37,38.72,496.37,38.72Z"/><path class="cls-1" d="M586.73,38.72l8.2.67s-3.72-14.76,0-39.38C586,21.11,586.73,38.72,586.73,38.72Z"/><path class="cls-2" d="M600.49,38.84l11.86.54s-5.38-12,0-32.09C599.44,24.49,600.49,38.84,600.49,38.84Z"/><path class="cls-2" d="M591.71,38.84l7.73.54s-3.51-12,0-32.09C591,24.49,591.71,38.84,591.71,38.84Z"/><path class="cls-2" d="M578.8,38.84l7.73.54s-3.51-12,0-32.09C578.12,24.49,578.8,38.84,578.8,38.84Z"/><path class="cls-2" d="M570.19,38.84l7.73.54s-3.51-12,0-32.09C569.51,24.49,570.19,38.84,570.19,38.84Z"/><path class="cls-2" d="M557.29,38.84l7.73.54s-3.51-12,0-32.09C556.6,24.49,557.29,38.84,557.29,38.84Z"/><path class="cls-2" d="M548.68,38.84l7.73.54s-3.51-12,0-32.09C548,24.49,548.68,38.84,548.68,38.84Z"/><path class="cls-2" d="M535.77,38.84l7.73.54s-3.51-12,0-32.09C535.09,24.49,535.77,38.84,535.77,38.84Z"/><path class="cls-2" d="M527.17,38.84l7.73.54s-3.51-12,0-32.09C526.48,24.49,527.17,38.84,527.17,38.84Z"/><path class="cls-2" d="M510,38.84l7.73.54s-3.51-12,0-32.09C509.27,24.49,510,38.84,510,38.84Z"/><path class="cls-2" d="M501.35,38.84l7.73.54s-3.51-12,0-32.09C500.67,24.49,501.35,38.84,501.35,38.84Z"/><path class="cls-2" d="M492.74,38.84l7.73.54s-3.51-12,0-32.09C492.06,24.49,492.74,38.84,492.74,38.84Z"/><path class="cls-2" d="M479.84,38.84l7.73.54s-3.51-12,0-32.09C479.15,24.49,479.84,38.84,479.84,38.84Z"/><path class="cls-2" d="M466.93,38.84l7.73.54s-3.5-12,0-32.09C466.24,24.49,466.93,38.84,466.93,38.84Z"/><path class="cls-2" d="M458.32,38.84l7.73.54s-3.51-12,0-32.09C457.64,24.49,458.32,38.84,458.32,38.84Z"/><path class="cls-2" d="M445.41,38.84l7.73.54s-3.51-12,0-32.09C444.73,24.49,445.41,38.84,445.41,38.84Z"/><path class="cls-2" d="M488.44,38.84l7.73.54s-3.51-12,0-32.09C487.76,24.49,488.44,38.84,488.44,38.84Z"/><path class="cls-2" d="M514.26,38.84l7.73.54s-3.51-12,0-32.09C513.58,24.49,514.26,38.84,514.26,38.84Z"/><path class="cls-2" d="M583.1,38.84l7.73.54s-3.51-12,0-32.09C582.42,24.49,583.1,38.84,583.1,38.84Z"/><path class="cls-2" d="M617.53,38.84l7.73.54s-3.51-12,0-32.09C616.84,24.49,617.53,38.84,617.53,38.84Z"/><path class="cls-2" d="M626.13,38.84l7.73.54s-3.51-12,0-32.09C625.45,24.49,626.13,38.84,626.13,38.84Z"/><path class="cls-2" d="M436.81,38.84l7.73.54s-3.51-12,0-32.09C436.12,24.49,436.81,38.84,436.81,38.84Z"/><path class="cls-2" d="M423.9,38.84l7.73.54s-3.51-12,0-32.09C423.22,24.49,423.9,38.84,423.9,38.84Z"/><path class="cls-2" d="M411,38.84l7.73.54s-3.51-12,0-32.09C410.31,24.49,411,38.84,411,38.84Z"/><path class="cls-2" d="M398.08,38.84l7.73.54s-3.51-12,0-32.09C397.4,24.49,398.08,38.84,398.08,38.84Z"/><path class="cls-2" d="M389.48,38.84l7.73.54s-3.51-12,0-32.09C388.79,24.49,389.48,38.84,389.48,38.84Z"/><path class="cls-2" d="M376.57,38.84l7.73.54s-3.51-12,0-32.09C375.89,24.49,376.57,38.84,376.57,38.84Z"/><path class="cls-2" d="M363.66,38.84l7.73.54s-3.51-12,0-32.09C363,24.49,363.66,38.84,363.66,38.84Z"/><path class="cls-2" d="M355.06,38.84l7.73.54s-3.51-12,0-32.09C354.37,24.49,355.06,38.84,355.06,38.84Z"/><path class="cls-2" d="M368,38.84l7.73.54s-3.51-12,0-32.09C367.28,24.49,368,38.84,368,38.84Z"/><path class="cls-2" d="M346.45,38.84l7.73.54s-3.51-12,0-32.09C345.77,24.49,346.45,38.84,346.45,38.84Z"/><path class="cls-2" d="M333.54,38.84l7.73.54s-3.51-12,0-32.09C332.86,24.49,333.54,38.84,333.54,38.84Z"/><path class="cls-2" d="M320.63,38.84l7.73.54s-3.51-12,0-32.09C319.95,24.49,320.63,38.84,320.63,38.84Z"/><path class="cls-2" d="M307.73,38.84l7.73.54s-3.51-12,0-32.09C307,24.49,307.73,38.84,307.73,38.84Z"/><path class="cls-2" d="M299.12,38.84l7.73.54s-3.51-12,0-32.09C298.44,24.49,299.12,38.84,299.12,38.84Z"/><path class="cls-2" d="M286.21,38.84l7.73.54s-3.51-12,0-32.09C285.53,24.49,286.21,38.84,286.21,38.84Z"/><path class="cls-2" d="M277.61,38.84l7.73.54s-3.51-12,0-32.09C276.92,24.49,277.61,38.84,277.61,38.84Z"/><path class="cls-2" d="M264.7,38.84l7.73.54s-3.51-12,0-32.09C264,24.49,264.7,38.84,264.7,38.84Z"/><path class="cls-2" d="M256.09,38.84l7.73.54s-3.51-12,0-32.09C255.41,24.49,256.09,38.84,256.09,38.84Z"/><path class="cls-2" d="M238.88,38.84l7.73.54s-3.51-12,0-32.09C238.2,24.49,238.88,38.84,238.88,38.84Z"/><path class="cls-2" d="M226,38.84l7.73.54s-3.51-12,0-32.09C225.29,24.49,226,38.84,226,38.84Z"/><path class="cls-2" d="M217.37,38.84l7.73.54s-3.51-12,0-32.09C216.68,24.49,217.37,38.84,217.37,38.84Z"/><path class="cls-2" d="M230.27,38.84l7.73.54s-3.51-12,0-32.09C229.59,24.49,230.27,38.84,230.27,38.84Z"/><path class="cls-2" d="M208.76,38.84l7.73.54s-3.51-12,0-32.09C208.08,24.49,208.76,38.84,208.76,38.84Z"/><path class="cls-2" d="M195.85,38.84l7.73.54s-3.51-12,0-32.09C195.17,24.49,195.85,38.84,195.85,38.84Z"/><path class="cls-2" d="M187.25,38.84l7.73.54s-3.51-12,0-32.09C186.56,24.49,187.25,38.84,187.25,38.84Z"/><path class="cls-2" d="M174.34,38.84l7.73.54s-3.51-12,0-32.09C173.66,24.49,174.34,38.84,174.34,38.84Z"/><path class="cls-2" d="M157.13,38.84l7.73.54s-3.51-12,0-32.09C156.44,24.49,157.13,38.84,157.13,38.84Z"/><path class="cls-2" d="M161.43,38.84l7.73.54s-3.51-12,0-32.09C160.75,24.49,161.43,38.84,161.43,38.84Z"/><path class="cls-2" d="M157.13,38.84l7.73.54s-3.51-12,0-32.09C156.44,24.49,157.13,38.84,157.13,38.84Z"/><path class="cls-2" d="M148.52,38.84l7.73.54s-3.51-12,0-32.09C147.84,24.49,148.52,38.84,148.52,38.84Z"/><path class="cls-2" d="M139.92,38.84l7.73.54s-3.51-12,0-32.09C139.23,24.49,139.92,38.84,139.92,38.84Z"/><path class="cls-2" d="M127,38.84l7.73.54s-3.51-12,0-32.09C126.32,24.49,127,38.84,127,38.84Z"/><path class="cls-2" d="M118.4,38.84l7.73.54s-3.51-12,0-32.09C117.72,24.49,118.4,38.84,118.4,38.84Z"/><path class="cls-2" d="M105.49,38.84l7.73.54s-3.51-12,0-32.09C104.81,24.49,105.49,38.84,105.49,38.84Z"/><path class="cls-2" d="M92.59,38.84l7.73.54s-3.51-12,0-32.09C91.9,24.49,92.59,38.84,92.59,38.84Z"/><path class="cls-2" d="M84,38.84l7.73.54s-3.51-12,0-32.09C83.3,24.49,84,38.84,84,38.84Z"/><path class="cls-2" d="M71.07,38.84l7.73.54s-3.51-12,0-32.09C70.39,24.49,71.07,38.84,71.07,38.84Z"/><path class="cls-2" d="M58.16,38.84l7.73.54s-3.51-12,0-32.09C57.48,24.49,58.16,38.84,58.16,38.84Z"/><path class="cls-2" d="M45.25,38.84l7.73.54s-3.51-12,0-32.09C44.57,24.49,45.25,38.84,45.25,38.84Z"/><path class="cls-2" d="M36.65,38.84l7.73.54s-3.51-12,0-32.09C36,24.49,36.65,38.84,36.65,38.84Z"/><path class="cls-2" d="M15.13,38.84l7.73.54s-3.51-12,0-32.09C14.45,24.49,15.13,38.84,15.13,38.84Z"/><path class="cls-2" d="M2.23,38.84l7.73.54s-3.51-12,0-32.09C1.54,24.49,2.23,38.84,2.23,38.84Z"/><path class="cls-3" d="M630.4,38.84l11.86.54s-5.38-12,0-32.09C629.35,24.49,630.4,38.84,630.4,38.84Z"/><path class="cls-3" d="M540,38.84l11.86.54s-5.38-12,0-32.09C539,24.49,540,38.84,540,38.84Z"/><path class="cls-3" d="M449.68,38.84l11.86.54s-5.38-12,0-32.09C448.63,24.49,449.68,38.84,449.68,38.84Z"/><path class="cls-3" d="M359.32,38.84l11.86.54s-5.38-12,0-32.09C358.27,24.49,359.32,38.84,359.32,38.84Z"/><path class="cls-3" d="M269,38.84l11.86.54s-5.38-12,0-32.09C267.91,24.49,269,38.84,269,38.84Z"/><path class="cls-3" d="M221.63,38.84l11.86.54s-5.38-12,0-32.09C220.58,24.49,221.63,38.84,221.63,38.84Z"/><path class="cls-3" d="M131.27,38.84l11.86.54s-5.38-12,0-32.09C130.23,24.49,131.27,38.84,131.27,38.84Z"/><path class="cls-3" d="M40.92,38.84l11.86.54s-5.38-12,0-32.09C39.87,24.49,40.92,38.84,40.92,38.84Z"/><path class="cls-3" d="M608.88,38.84l11.86.54s-5.38-12,0-32.09C607.83,24.49,608.88,38.84,608.88,38.84Z"/><path class="cls-3" d="M518.53,38.84l11.86.54s-5.38-12,0-32.09C517.48,24.49,518.53,38.84,518.53,38.84Z"/><path class="cls-3" d="M428.17,38.84l11.86.54s-5.38-12,0-32.09C427.12,24.49,428.17,38.84,428.17,38.84Z"/><path class="cls-3" d="M337.81,38.84l11.86.54s-5.38-12,0-32.09C336.76,24.49,337.81,38.84,337.81,38.84Z"/><path class="cls-3" d="M247.45,38.84l11.86.54s-5.38-12,0-32.09C246.4,24.49,247.45,38.84,247.45,38.84Z"/><path class="cls-3" d="M200.12,38.84l11.86.54s-5.38-12,0-32.09C199.07,24.49,200.12,38.84,200.12,38.84Z"/><path class="cls-3" d="M109.76,38.84l11.86.54s-5.38-12,0-32.09C108.71,24.49,109.76,38.84,109.76,38.84Z"/><path class="cls-3" d="M74.72,38.84l11.86.54s-5.38-12,0-32.09C73.67,24.49,74.72,38.84,74.72,38.84Z"/><path class="cls-3" d="M19.4,38.84l11.86.54s-5.38-12,0-32.09C18.35,24.49,19.4,38.84,19.4,38.84Z"/><path class="cls-3" d="M562,38.84l11.86.54s-5.38-12,0-32.09C560.91,24.49,562,38.84,562,38.84Z"/><path class="cls-3" d="M471.6,38.84l11.86.54s-5.38-12,0-32.09C470.55,24.49,471.6,38.84,471.6,38.84Z"/><path class="cls-3" d="M381.24,38.84l11.86.54s-5.38-12,0-32.09C380.19,24.49,381.24,38.84,381.24,38.84Z"/><path class="cls-3" d="M290.88,38.84l11.86.54s-5.38-12,0-32.09C289.83,24.49,290.88,38.84,290.88,38.84Z"/><path class="cls-3" d="M200.52,38.84l11.86.54s-5.38-12,0-32.09C199.48,24.49,200.52,38.84,200.52,38.84Z"/><path class="cls-3" d="M153.19,38.84l11.86.54s-5.38-12,0-32.09C152.15,24.49,153.19,38.84,153.19,38.84Z"/><path class="cls-3" d="M62.83,38.84l11.86.54s-5.38-12,0-32.09C61.79,24.49,62.83,38.84,62.83,38.84Z"/><path class="cls-3" d="M6.93,7.3A66,66,0,0,0,0,18.72V39.07l6.93.32S1.55,27.36,6.93,7.3Z"/><path class="cls-1" d="M749,38.72l8.2.67s-3.72-14.76,0-39.38C748.27,21.11,749,38.72,749,38.72Z"/><path class="cls-1" d="M714,38.72l8.2.67s-3.72-14.76,0-39.38C713.26,21.11,714,38.72,714,38.72Z"/><path class="cls-1" d="M692.47,38.72l8.2.67s-3.72-14.76,0-39.38C691.75,21.11,692.47,38.72,692.47,38.72Z"/><path class="cls-1" d="M671,38.72l8.2.67s-3.72-14.76,0-39.38C670.23,21.11,671,38.72,671,38.72Z"/><path class="cls-1" d="M646.57,38.72l8.2.67s-3.72-14.76,0-39.38C645.85,21.11,646.57,38.72,646.57,38.72Z"/><path class="cls-1" d="M758.45,38.72l8.2.67s-3.72-14.76,0-39.38C757.72,21.11,758.45,38.72,758.45,38.72Z"/><path class="cls-1" d="M784.26,38.72l8.2.67s-3.72-14.76,0-39.38C783.54,21.11,784.26,38.72,784.26,38.72Z"/><path class="cls-1" d="M805.78,38.72l8.2.67S810.26,24.63,814,0C805.05,21.11,805.78,38.72,805.78,38.72Z"/><path class="cls-1" d="M827.29,38.72l8.2.67s-3.72-14.76,0-39.38C826.57,21.11,827.29,38.72,827.29,38.72Z"/><path class="cls-1" d="M853.11,38.72l8.2.67s-3.72-14.76,0-39.38C852.38,21.11,853.11,38.72,853.11,38.72Z"/><path class="cls-1" d="M874.62,38.72l8.2.67s-3.72-14.76,0-39.38C873.9,21.11,874.62,38.72,874.62,38.72Z"/><path class="cls-1" d="M896.14,38.72l8.2.67s-3.72-14.76,0-39.38C895.41,21.11,896.14,38.72,896.14,38.72Z"/><path class="cls-1" d="M922,38.72l8.2.67s-3.72-14.76,0-39.38C921.23,21.11,922,38.72,922,38.72Z"/><path class="cls-1" d="M943.47,38.72l8.2.67s-3.72-14.76,0-39.38C942.74,21.11,943.47,38.72,943.47,38.72Z"/><path class="cls-1" d="M965,38.72l8.2.67s-3.72-14.76,0-39.38C964.25,21.11,965,38.72,965,38.72Z"/><path class="cls-1" d="M986.49,38.72l8.2.67S991,24.63,994.69,0C985.77,21.11,986.49,38.72,986.49,38.72Z"/><path class="cls-1" d="M1012.31,38.72l8.2.67s-3.72-14.76,0-39.38C1011.58,21.11,1012.31,38.72,1012.31,38.72Z"/><path class="cls-1" d="M1033.83,38.72l8.2.67S1038.3,24.63,1042,0C1033.1,21.11,1033.83,38.72,1033.83,38.72Z"/><path class="cls-1" d="M1055.34,38.72l8.2.67s-3.72-14.76,0-39.38C1054.61,21.11,1055.34,38.72,1055.34,38.72Z"/><path class="cls-1" d="M1076.85,38.72l8.2.67s-3.72-14.76,0-39.38C1076.13,21.11,1076.85,38.72,1076.85,38.72Z"/><path class="cls-1" d="M1102.67,38.72l8.2.67s-3.72-14.76,0-39.38C1101.94,21.11,1102.67,38.72,1102.67,38.72Z"/><path class="cls-1" d="M1124.18,38.72l8.2.67s-3.72-14.76,0-39.38C1123.46,21.11,1124.18,38.72,1124.18,38.72Z"/><path class="cls-1" d="M1145.7,38.72l8.2.67s-3.72-14.76,0-39.38C1145,21.11,1145.7,38.72,1145.7,38.72Z"/><path class="cls-1" d="M1167.21,38.72l8.2.67s-3.72-14.76,0-39.38C1166.49,21.11,1167.21,38.72,1167.21,38.72Z"/><path class="cls-1" d="M1193,38.72l8.2.67s-3.72-14.76,0-39.38C1192.3,21.11,1193,38.72,1193,38.72Z"/><path class="cls-1" d="M1214.54,38.72l8.2.67s-3.72-14.76,0-39.38C1213.82,21.11,1214.54,38.72,1214.54,38.72Z"/><path class="cls-1" d="M1236.06,38.72l8.2.67s-3.72-14.76,0-39.38C1235.33,21.11,1236.06,38.72,1236.06,38.72Z"/><path class="cls-1" d="M1257.57,38.72l8.2.67s-3.72-14.76,0-39.38C1256.85,21.11,1257.57,38.72,1257.57,38.72Z"/><path class="cls-1" d="M843.46,38.72l8.2.67s-3.72-14.76,0-39.38C842.73,21.11,843.46,38.72,843.46,38.72Z"/><path class="cls-1" d="M908,38.72l8.2.67s-3.72-14.76,0-39.38C907.28,21.11,908,38.72,908,38.72Z"/><path class="cls-1" d="M976.85,38.72l8.2.67S981.33,24.63,985,0C976.12,21.11,976.85,38.72,976.85,38.72Z"/><path class="cls-1" d="M1067.2,38.72l8.2.67s-3.72-14.76,0-39.38C1066.48,21.11,1067.2,38.72,1067.2,38.72Z"/><path class="cls-1" d="M1157.56,38.72l8.2.67s-3.72-14.76,0-39.38C1156.84,21.11,1157.56,38.72,1157.56,38.72Z"/><path class="cls-1" d="M1247.92,38.72l8.2.67s-3.72-14.76,0-39.38C1247.2,21.11,1247.92,38.72,1247.92,38.72Z"/><path class="cls-2" d="M1261.68,38.84l11.86.54s-5.38-12,0-32.09C1260.63,24.49,1261.68,38.84,1261.68,38.84Z"/><path class="cls-2" d="M1252.9,38.84l7.73.54s-3.51-12,0-32.09C1252.22,24.49,1252.9,38.84,1252.9,38.84Z"/><path class="cls-2" d="M1240,38.84l7.73.54s-3.51-12,0-32.09C1239.31,24.49,1240,38.84,1240,38.84Z"/><path class="cls-2" d="M1231.39,38.84l7.73.54s-3.51-12,0-32.09C1230.71,24.49,1231.39,38.84,1231.39,38.84Z"/><path class="cls-2" d="M1218.48,38.84l7.73.54s-3.51-12,0-32.09C1217.8,24.49,1218.48,38.84,1218.48,38.84Z"/><path class="cls-2" d="M1209.87,38.84l7.73.54s-3.5-12,0-32.09C1209.19,24.49,1209.87,38.84,1209.87,38.84Z"/><path class="cls-2" d="M1197,38.84l7.73.54s-3.51-12,0-32.09C1196.28,24.49,1197,38.84,1197,38.84Z"/><path class="cls-2" d="M1188.36,38.84l7.73.54s-3.51-12,0-32.09C1187.68,24.49,1188.36,38.84,1188.36,38.84Z"/><path class="cls-2" d="M1171.15,38.84l7.73.54s-3.51-12,0-32.09C1170.47,24.49,1171.15,38.84,1171.15,38.84Z"/><path class="cls-2" d="M1162.54,38.84l7.73.54s-3.51-12,0-32.09C1161.86,24.49,1162.54,38.84,1162.54,38.84Z"/><path class="cls-2" d="M1153.94,38.84l7.73.54s-3.51-12,0-32.09C1153.26,24.49,1153.94,38.84,1153.94,38.84Z"/><path class="cls-2" d="M1141,38.84l7.73.54s-3.51-12,0-32.09C1140.35,24.49,1141,38.84,1141,38.84Z"/><path class="cls-2" d="M1128.12,38.84l7.73.54s-3.51-12,0-32.09C1127.44,24.49,1128.12,38.84,1128.12,38.84Z"/><path class="cls-2" d="M1119.52,38.84l7.73.54s-3.51-12,0-32.09C1118.83,24.49,1119.52,38.84,1119.52,38.84Z"/><path class="cls-2" d="M1106.61,38.84l7.73.54s-3.51-12,0-32.09C1105.92,24.49,1106.61,38.84,1106.61,38.84Z"/><path class="cls-2" d="M1149.64,38.84l7.73.54s-3.51-12,0-32.09C1149,24.49,1149.64,38.84,1149.64,38.84Z"/><path class="cls-2" d="M1175.45,38.84l7.73.54s-3.51-12,0-32.09C1174.77,24.49,1175.45,38.84,1175.45,38.84Z"/><path class="cls-2" d="M1244.3,38.84l7.73.54s-3.51-12,0-32.09C1243.61,24.49,1244.3,38.84,1244.3,38.84Z"/><path class="cls-2" d="M1278.72,38.84h.12V34.69A39.91,39.91,0,0,0,1278.72,38.84Z"/><path class="cls-2" d="M1098,38.84l7.73.54s-3.51-12,0-32.09C1097.32,24.49,1098,38.84,1098,38.84Z"/><path class="cls-2" d="M1085.1,38.84l7.73.54s-3.51-12,0-32.09C1084.41,24.49,1085.1,38.84,1085.1,38.84Z"/><path class="cls-2" d="M1072.19,38.84l7.73.54s-3.51-12,0-32.09C1071.5,24.49,1072.19,38.84,1072.19,38.84Z"/><path class="cls-2" d="M1059.28,38.84l7.73.54s-3.51-12,0-32.09C1058.59,24.49,1059.28,38.84,1059.28,38.84Z"/><path class="cls-2" d="M1050.67,38.84l7.73.54s-3.51-12,0-32.09C1050,24.49,1050.67,38.84,1050.67,38.84Z"/><path class="cls-2" d="M1037.76,38.84l7.73.54s-3.51-12,0-32.09C1037.08,24.49,1037.76,38.84,1037.76,38.84Z"/><path class="cls-2" d="M1024.86,38.84l7.73.54s-3.51-12,0-32.09C1024.17,24.49,1024.86,38.84,1024.86,38.84Z"/><path class="cls-2" d="M1016.25,38.84l7.73.54s-3.51-12,0-32.09C1015.57,24.49,1016.25,38.84,1016.25,38.84Z"/><path class="cls-2" d="M1029.16,38.84l7.73.54s-3.51-12,0-32.09C1028.47,24.49,1029.16,38.84,1029.16,38.84Z"/><path class="cls-2" d="M1007.64,38.84l7.73.54s-3.51-12,0-32.09C1007,24.49,1007.64,38.84,1007.64,38.84Z"/><path class="cls-2" d="M994.74,38.84l7.73.54s-3.51-12,0-32.09C994.05,24.49,994.74,38.84,994.74,38.84Z"/><path class="cls-2" d="M981.83,38.84l7.73.54s-3.51-12,0-32.09C981.15,24.49,981.83,38.84,981.83,38.84Z"/><path class="cls-2" d="M968.92,38.84l7.73.54s-3.51-12,0-32.09C968.23,24.49,968.92,38.84,968.92,38.84Z"/><path class="cls-2" d="M960.31,38.84l7.73.54s-3.51-12,0-32.09C959.63,24.49,960.31,38.84,960.31,38.84Z"/><path class="cls-2" d="M947.41,38.84l7.73.54s-3.51-12,0-32.09C946.72,24.49,947.41,38.84,947.41,38.84Z"/><path class="cls-2" d="M938.8,38.84l7.73.54s-3.51-12,0-32.09C938.12,24.49,938.8,38.84,938.8,38.84Z"/><path class="cls-2" d="M925.89,38.84l7.73.54s-3.51-12,0-32.09C925.21,24.49,925.89,38.84,925.89,38.84Z"/><path class="cls-2" d="M917.29,38.84l7.73.54s-3.51-12,0-32.09C916.6,24.49,917.29,38.84,917.29,38.84Z"/><path class="cls-2" d="M900.07,38.84l7.73.54s-3.51-12,0-32.09C899.39,24.49,900.07,38.84,900.07,38.84Z"/><path class="cls-2" d="M887.17,38.84l7.73.54s-3.51-12,0-32.09C886.48,24.49,887.17,38.84,887.17,38.84Z"/><path class="cls-2" d="M878.56,38.84l7.73.54s-3.51-12,0-32.09C877.88,24.49,878.56,38.84,878.56,38.84Z"/><path class="cls-2" d="M891.47,38.84l7.73.54s-3.51-12,0-32.09C890.79,24.49,891.47,38.84,891.47,38.84Z"/><path class="cls-2" d="M870,38.84l7.73.54s-3.51-12,0-32.09C869.27,24.49,870,38.84,870,38.84Z"/><path class="cls-2" d="M857,38.84l7.73.54s-3.51-12,0-32.09C856.36,24.49,857,38.84,857,38.84Z"/><path class="cls-2" d="M848.44,38.84l7.73.54s-3.51-12,0-32.09C847.76,24.49,848.44,38.84,848.44,38.84Z"/><path class="cls-2" d="M835.53,38.84l7.73.54s-3.51-12,0-32.09C834.85,24.49,835.53,38.84,835.53,38.84Z"/><path class="cls-2" d="M818.32,38.84l7.73.54s-3.51-12,0-32.09C817.64,24.49,818.32,38.84,818.32,38.84Z"/><path class="cls-2" d="M822.62,38.84l7.73.54s-3.51-12,0-32.09C821.94,24.49,822.62,38.84,822.62,38.84Z"/><path class="cls-2" d="M818.32,38.84l7.73.54s-3.51-12,0-32.09C817.64,24.49,818.32,38.84,818.32,38.84Z"/><path class="cls-2" d="M809.72,38.84l7.73.54s-3.51-12,0-32.09C809,24.49,809.72,38.84,809.72,38.84Z"/><path class="cls-2" d="M801.11,38.84l7.73.54s-3.51-12,0-32.09C800.43,24.49,801.11,38.84,801.11,38.84Z"/><path class="cls-2" d="M788.2,38.84l7.73.54s-3.51-12,0-32.09C787.52,24.49,788.2,38.84,788.2,38.84Z"/><path class="cls-2" d="M779.6,38.84l7.73.54s-3.51-12,0-32.09C778.91,24.49,779.6,38.84,779.6,38.84Z"/><path class="cls-2" d="M766.69,38.84l7.73.54s-3.51-12,0-32.09C766,24.49,766.69,38.84,766.69,38.84Z"/><path class="cls-2" d="M753.78,38.84l7.73.54s-3.51-12,0-32.09C753.1,24.49,753.78,38.84,753.78,38.84Z"/><path class="cls-2" d="M745.18,38.84l7.73.54s-3.51-12,0-32.09C744.49,24.49,745.18,38.84,745.18,38.84Z"/><path class="cls-2" d="M732.27,38.84l7.73.54s-3.51-12,0-32.09C731.58,24.49,732.27,38.84,732.27,38.84Z"/><path class="cls-2" d="M719.36,38.84l7.73.54s-3.51-12,0-32.09C718.67,24.49,719.36,38.84,719.36,38.84Z"/><path class="cls-2" d="M706.45,38.84l7.73.54s-3.51-12,0-32.09C705.77,24.49,706.45,38.84,706.45,38.84Z"/><path class="cls-2" d="M697.84,38.84l7.73.54s-3.51-12,0-32.09C697.16,24.49,697.84,38.84,697.84,38.84Z"/><path class="cls-2" d="M676.33,38.84l7.73.54s-3.51-12,0-32.09C675.65,24.49,676.33,38.84,676.33,38.84Z"/><path class="cls-2" d="M663.42,38.84l7.73.54s-3.51-12,0-32.09C662.74,24.49,663.42,38.84,663.42,38.84Z"/><path class="cls-2" d="M650.51,38.84l7.73.54s-3.51-12,0-32.09C649.83,24.49,650.51,38.84,650.51,38.84Z"/><path class="cls-2" d="M642.27,38.84l7.73.54s-3.51-12,0-32.09C641.59,24.49,642.27,38.84,642.27,38.84Z"/><path class="cls-3" d="M1201.23,38.84l11.86.54s-5.38-12,0-32.09C1200.19,24.49,1201.23,38.84,1201.23,38.84Z"/><path class="cls-3" d="M1110.88,38.84l11.86.54s-5.38-12,0-32.09C1109.83,24.49,1110.88,38.84,1110.88,38.84Z"/><path class="cls-3" d="M1020.52,38.84l11.86.54s-5.38-12,0-32.09C1019.47,24.49,1020.52,38.84,1020.52,38.84Z"/><path class="cls-3" d="M930.16,38.84l11.86.54s-5.38-12,0-32.09C929.11,24.49,930.16,38.84,930.16,38.84Z"/><path class="cls-3" d="M882.83,38.84l11.86.54s-5.38-12,0-32.09C881.78,24.49,882.83,38.84,882.83,38.84Z"/><path class="cls-3" d="M792.47,38.84l11.86.54s-5.38-12,0-32.09C791.42,24.49,792.47,38.84,792.47,38.84Z"/><path class="cls-3" d="M702.11,38.84l11.86.54s-5.38-12,0-32.09C701.06,24.49,702.11,38.84,702.11,38.84Z"/><path class="cls-3" d="M1270.08,38.84l8.76.4V11.81C1269.24,26.93,1270.08,38.84,1270.08,38.84Z"/><path class="cls-3" d="M1179.72,38.84l11.86.54s-5.38-12,0-32.09C1178.67,24.49,1179.72,38.84,1179.72,38.84Z"/><path class="cls-3" d="M1089.36,38.84l11.86.54s-5.38-12,0-32.09C1088.31,24.49,1089.36,38.84,1089.36,38.84Z"/><path class="cls-3" d="M999,38.84l11.86.54s-5.38-12,0-32.09C998,24.49,999,38.84,999,38.84Z"/><path class="cls-3" d="M908.64,38.84l11.86.54s-5.38-12,0-32.09C907.6,24.49,908.64,38.84,908.64,38.84Z"/><path class="cls-3" d="M861.31,38.84l11.86.54s-5.38-12,0-32.09C860.27,24.49,861.31,38.84,861.31,38.84Z"/><path class="cls-3" d="M771,38.84l11.86.54s-5.38-12,0-32.09C769.91,24.49,771,38.84,771,38.84Z"/><path class="cls-3" d="M735.91,38.84l11.86.54s-5.38-12,0-32.09C734.86,24.49,735.91,38.84,735.91,38.84Z"/><path class="cls-3" d="M680.6,38.84l11.86.54s-5.38-12,0-32.09C679.55,24.49,680.6,38.84,680.6,38.84Z"/><path class="cls-3" d="M1223.15,38.84l11.86.54s-5.38-12,0-32.09C1222.11,24.49,1223.15,38.84,1223.15,38.84Z"/><path class="cls-3" d="M1132.79,38.84l11.86.54s-5.38-12,0-32.09C1131.75,24.49,1132.79,38.84,1132.79,38.84Z"/><path class="cls-3" d="M1042.44,38.84l11.86.54s-5.38-12,0-32.09C1041.39,24.49,1042.44,38.84,1042.44,38.84Z"/><path class="cls-3" d="M952.08,38.84l11.86.54s-5.38-12,0-32.09C951,24.49,952.08,38.84,952.08,38.84Z"/><path class="cls-3" d="M861.72,38.84l11.86.54s-5.38-12,0-32.09C860.67,24.49,861.72,38.84,861.72,38.84Z"/><path class="cls-3" d="M814.39,38.84l11.86.54s-5.38-12,0-32.09C813.34,24.49,814.39,38.84,814.39,38.84Z"/><path class="cls-3" d="M724,38.84l11.86.54s-5.38-12,0-32.09C723,24.49,724,38.84,724,38.84Z"/><path class="cls-3" d="M642.26,12.09V39.23l3.28.15s-5.38-12,0-32.09C644.31,8.93,643.24,10.52,642.26,12.09Z"/><path class="cls-3" d="M656.26,38.84l11.86.54s-5.38-12,0-32.09C655.21,24.49,656.26,38.84,656.26,38.84Z"/></g></g></svg>